PathFileType  4	(X/Y/Z) C:\Users\antoi\Documents\MyRepositories\mobilecap\ResultsAnalysis
DataRate	CameraRate	NumFrames	NumMarkers	Units	OrigDataRate	OrigDataStartFrame	OrigNumFrames
100.0	100.0	4	51	mm	100.0	24	184
Frame#	Time	r_knee			r_shank_antsup			r_ankle			r_calc			r_5meta			r_toe			L_knee			L_shank_antsup			L_ankle			L_calc			L_5meta			L_toe			r_sh2			r_sh3			r_sh4			L_sh2			L_sh3			r_thigh1			r_thigh2			r_thigh3			r_thigh4			r_thigh5			L_thigh1			L_thigh2			L_thigh3			L_thigh4			r.ASIS			r.PSIS			L.ASIS			L.PSIS			C7			R_Shoulder			L_Shoulder			R_Sternum			L_Sternum			R_humerus			R_elbow_med			R_elbow_lat			R_forearm			R_wrist_radius			R_wrist_ulna			L_humerus			L_elbow_med			L_elbow_lat			L_forearm			L_wrist_radius			L_wrist_ulna			R_HJC			L_HJC			R_HJC_reg			L_HJC_reg			
		X1	Y1	Z1	X2	Y2	Z2	X3	Y3	Z3	X4	Y4	Z4	X5	Y5	Z5	X6	Y6	Z6	X7	Y7	Z7	X8	Y8	Z8	X9	Y9	Z9	X10	Y10	Z10	X11	Y11	Z11	X12	Y12	Z12	X13	Y13	Z13	X14	Y14	Z14	X15	Y15	Z15	X16	Y16	Z16	X17	Y17	Z17	X18	Y18	Z18	X19	Y19	Z19	X20	Y20	Z20	X21	Y21	Z21	X22	Y22	Z22	X23	Y23	Z23	X24	Y24	Z24	X25	Y25	Z25	X26	Y26	Z26	X27	Y27	Z27	X28	Y28	Z28	X29	Y29	Z29	X30	Y30	Z30	X31	Y31	Z31	X32	Y32	Z32	X33	Y33	Z33	X34	Y34	Z34	X35	Y35	Z35	X36	Y36	Z36	X37	Y37	Z37	X38	Y38	Z38	X39	Y39	Z39	X40	Y40	Z40	X41	Y41	Z41	X42	Y42	Z42	X43	Y43	Z43	X44	Y44	Z44	X45	Y45	Z45	X46	Y46	Z46	X47	Y47	Z47	X48	Y48	Z48	X49	Y49	Z49	X50	Y50	Z50	X51	Y51	Z51	

24	0.23000000	134.68585	604.74784	-110.20176	163.66523	453.93983	-123.43067	86.62895	96.13514	-146.98825	32.98950	76.68535	-213.16897	223.40384	40.07189	-117.59217	265.36597	68.20931	-164.89206	26.06479	599.00010	-431.70142	-69.13856	424.17332	-415.97414	-353.34033	293.16968	-385.19730	-399.57173	315.84830	-309.87097	-346.38065	129.88156	-427.84918	-285.44370	114.53635	-383.40696	158.99248	341.81346	-136.67267	99.48233	449.56521	-82.18305	90.35558	336.74891	-88.45830	-117.94608	486.91240	-454.87408	-210.29238	417.94420	-431.67950	101.52434	892.22849	-65.52827	142.07350	789.64402	-73.21502	92.22917	745.48011	-68.88705	-3.06969	856.55761	-91.03291	37.99043	745.63456	-90.00820	-30.64085	885.39247	-437.84220	-18.58257	749.61083	-446.66701	79.26825	891.14351	-436.58093	90.52318	757.16976	-442.30541	96.35011	1168.53418	-120.23167	-100.90371	1194.48490	-189.72038	63.80095	1163.12838	-397.48160	-110.33607	1196.71055	-282.04510	-37.98378	1684.47219	-214.26967	38.13393	1610.78225	-48.36243	21.59244	1662.24919	-398.41461	97.24503	1584.97935	-200.86018	96.99657	1592.30030	-255.88258	-17.22459	1341.10979	2.29076	-128.45205	1250.55444	-37.92295	-111.47833	1263.94457	33.04279	-29.84207	1061.82663	43.26475	-0.29946	971.61488	39.14825	-34.81553	966.23569	54.68204	-2.78139	1369.07747	-476.35464	-106.36737	1309.53321	-444.31034	-73.07347	1300.66407	-510.80996	-14.57759	1101.77225	-527.75718	0.08075	1021.78779	-516.73901	-17.61005	1027.74327	-545.35834	16.11285	1071.21615	-150.65460	-12.51786	1071.94373	-346.04012	23.55664	1076.46305	-155.25030	4.83143	1080.88154	-338.52292	
25	0.24000000	138.20699	604.66610	-110.47789	166.26741	453.75522	-123.90253	87.18945	96.57056	-147.52991	33.21125	76.86426	-213.54703	223.56997	40.21286	-117.70613	265.70583	67.76435	-165.11343	45.99964	602.39557	-431.20948	-45.70107	425.67711	-416.85411	-327.20616	288.59414	-386.31251	-374.65978	308.81614	-310.90864	-313.98259	126.20235	-430.52282	-252.34847	112.83190	-386.14853	161.01037	341.56163	-137.20664	102.05008	449.57013	-82.62778	92.42868	336.84996	-88.90247	-95.77817	487.88592	-455.08196	-186.90202	416.99119	-432.09943	108.78346	892.57998	-65.10921	147.94475	789.56165	-73.15505	97.31245	745.83900	-68.72348	4.34498	858.05083	-91.12587	43.14212	747.05351	-90.02163	-15.72856	887.30388	-437.90163	-1.15774	751.79607	-447.00649	94.03575	894.91170	-436.34717	107.70565	761.17735	-442.09353	106.26597	1170.04534	-119.22456	-90.86849	1196.23660	-189.02145	74.13379	1165.67253	-396.28083	-100.25581	1198.52002	-281.38291	-28.87332	1686.24491	-212.45343	47.41283	1612.46837	-46.86872	30.52774	1664.85630	-396.69800	106.60551	1587.15478	-199.39610	106.36590	1594.60065	-254.37580	-6.32105	1342.62137	3.51335	-116.97998	1251.19417	-36.59406	-100.34047	1264.89340	34.12553	-16.48084	1063.48784	44.80176	14.09013	973.64671	40.83713	-20.45544	967.89692	56.19835	7.10422	1371.81819	-475.32856	-96.25072	1311.82719	-443.44334	-62.90731	1303.22682	-510.01063	-3.32550	1104.71430	-527.13244	12.03560	1024.85872	-516.08755	-5.69876	1030.64163	-544.90529	26.11140	1072.81826	-150.07819	-2.13473	1074.18381	-345.51592	33.54115	1078.57640	-154.30478	14.92958	1083.10388	-337.41477	
26	0.25000000	141.55393	604.57549	-110.78532	168.72771	453.57266	-124.44846	87.72099	96.97095	-148.11528	33.43616	76.98131	-213.95503	223.71619	40.41248	-117.84520	266.02086	67.41396	-165.34203	65.65283	605.79236	-430.75524	-22.27694	427.06987	-417.66515	-300.54746	283.19450	-387.45836	-349.24458	300.78988	-312.01308	-280.63049	121.98101	-433.07342	-218.39141	110.84306	-388.68732	162.91777	341.30686	-137.80829	104.50470	449.54574	-83.08702	94.45531	336.92113	-89.33378	-73.71341	488.59365	-455.26951	-163.41250	415.57991	-432.49887	116.01545	892.88684	-64.86398	153.67783	789.42744	-73.16086	102.23527	746.27378	-68.63198	11.97562	859.31266	-91.16303	48.20108	748.46285	-90.03359	-1.06854	889.25168	-437.97804	16.00269	754.03149	-447.27805	108.52578	898.66213	-436.04071	124.58288	765.19861	-441.79328	116.03688	1171.38953	-118.18727	-80.97976	1197.87023	-188.35046	84.21998	1168.01781	-395.06105	-90.31687	1200.19087	-280.73963	-19.82307	1687.88408	-210.80940	56.56262	1614.07789	-45.48551	39.46477	1667.22195	-395.12735	115.89028	1589.19909	-198.00978	115.68637	1596.74366	-252.96039	4.43760	1344.06106	4.73588	-105.63022	1251.76555	-35.25420	-89.29107	1265.77307	35.23656	-3.29649	1065.08746	46.35338	28.25671	975.61781	42.49358	-6.22154	969.49993	57.70168	16.96527	1374.30416	-474.34604	-86.19628	1313.88124	-442.63202	-52.79801	1305.53604	-509.26228	7.95574	1107.41572	-526.51211	24.16951	1027.82558	-515.45206	6.07885	1033.32806	-544.41456	35.91501	1074.27511	-149.48322	8.03715	1076.25016	-344.96940	43.30809	1080.54251	-153.30692	24.81657	1085.13871	-336.27300	
27	0.26000000	144.73278	604.46059	-111.09652	171.04550	453.36780	-125.03490	88.19714	97.32398	-148.72042	33.65874	77.03055	-214.38814	223.83329	40.65561	-117.99370	266.30101	67.16130	-165.57116	85.01519	609.16653	-430.34986	1.13934	428.32586	-418.38331	-273.32462	277.04432	-388.63296	-323.22350	291.88175	-313.17297	-246.41830	117.31289	-435.47172	-183.75991	108.62332	-391.00111	164.70532	341.03920	-138.44809	106.83859	449.48723	-83.54225	96.40456	336.95237	-89.74906	-51.72238	488.99943	-455.45151	-139.76328	413.69068	-432.89941	123.24171	893.14286	-64.78075	159.32611	789.20981	-73.22346	107.05277	746.79428	-68.58763	19.76487	860.37904	-91.06473	53.19969	749.82415	-89.98413	13.30150	891.21001	-438.06301	32.85571	756.28385	-447.44980	122.69349	902.38192	-435.66805	141.12438	769.21593	-441.39991	125.69975	1172.58256	-117.16605	-71.22496	1199.37685	-187.70749	94.03100	1170.12663	-393.87900	-80.52241	1201.71940	-280.11723	-10.82388	1689.38518	-209.33180	65.61303	1615.59401	-44.20669	48.40823	1669.33620	-393.70043	125.09827	1591.09037	-196.70435	124.96247	1598.71761	-251.63696	15.05729	1345.39641	5.97439	-94.41682	1252.26258	-33.88411	-78.31980	1266.56365	36.43807	9.67560	1066.60338	47.91744	42.11891	977.50346	44.11660	7.80869	971.02507	59.20630	26.80759	1376.51961	-473.41193	-76.18912	1315.67663	-441.88025	-42.73326	1307.57576	-508.56560	19.24487	1109.85990	-525.91145	36.37558	1030.61615	-514.87797	17.70674	1035.77905	-543.90731	45.55233	1075.59366	-148.88519	17.97687	1078.11768	-344.40940	52.89100	1082.32861	-152.29918	34.49414	1086.96410	-335.14896	
